<?xml version="1.0" standalone="no"?>
<!DOCTYPE svg PUBLIC "-//W3C//DTD SVG 20010904//EN"
 "http://www.w3.org/TR/2001/REC-SVG-20010904/DTD/svg10.dtd">
<svg version="1.0" xmlns="http://www.w3.org/2000/svg"
 width="96.000000pt" height="96.000000pt" viewBox="0 0 96.000000 96.000000"
 preserveAspectRatio="xMidYMid meet">
<metadata>
Created by potrace 1.14, written by Peter Selinger 2001-2017
</metadata>
<g transform="translate(0.000000,96.000000) scale(0.100000,-0.100000)"
fill="#000000" stroke="none">
<path d="M395 868 c-44 -16 -93 -36 -110 -43 -16 -7 -49 -19 -73 -26 -66 -19
-71 -34 -19 -57 25 -11 54 -23 65 -26 15 -5 21 -19 26 -57 4 -27 3 -55 -1 -62
-10 -16 -4 -58 10 -75 6 -8 11 -26 12 -40 2 -36 20 -69 50 -88 15 -10 25 -26
25 -39 0 -20 -9 -26 -52 -39 -99 -28 -161 -93 -175 -181 -4 -28 -1 -36 22 -51
23 -15 55 -18 255 -19 337 -2 386 7 374 72 -15 84 -63 135 -161 175 -38 15
-68 33 -68 40 0 7 16 30 37 51 21 21 38 47 38 58 0 12 6 35 14 52 20 46 26 76
15 83 -5 3 -8 27 -5 52 3 39 9 50 32 64 16 10 43 21 60 24 16 3 35 14 41 23
10 16 1 22 -90 55 -56 20 -122 45 -147 55 -77 32 -91 31 -175 -1z"/>
<path d="M782 643 c-1 -49 -6 -89 -12 -91 -15 -5 -12 -38 5 -52 8 -6 19 -9 25
-5 12 8 13 52 1 59 -4 3 -8 44 -7 91 1 47 -1 85 -5 85 -3 0 -6 -39 -7 -87z"/>
</g>
</svg>
